<?xml version="1.0" encoding="UTF-8"?>
<svg xmlns="http://www.w3.org/2000/svg" version="1.1" viewBox="0 0 736.8 127">
  <defs>
    <style>
      .cls-1 {
        fill: #1a1918;
      }

      .cls-2 {
        fill: #ff8f6b;
      }

      .cls-3 {
        fill: #d35230;
      }
    </style>
  </defs>
  <!-- Generator: Adobe Illustrator 28.7.4, SVG Export Plug-In . SVG Version: 1.2.0 Build 166)  -->
  <g>
    <g id="Layer_1">
      <path class="cls-3" d="M47.6,66.4c-1.3-1.9-1.3-4.4,0-6.3,11-18.8,21.8-37.7,32.6-56.7.6-1.1,1.1-2.3,1.5-3.5h-35.9c-11.6,20.1-23.2,40.2-34.8,60.3-1,1.7-1.8,3-.5,5.2,11.3,19.4,22.5,38.8,33.6,58.3.8,1.8,2.7,2.8,4.6,2.6,10,0,20,0,30,0,1,0,2-.2,3-.4-1.2-2-2.1-3.7-3-5.4-10.5-18.1-20.8-36.2-31.3-54.3Z"/>
      <path class="cls-2" d="M98.3,121.7c-10.7-18.4-21.3-36.8-32-55.3-1.4-1.9-1.4-4.5,0-6.4,10.5-18,21-36.1,31.4-54.2,1.1-1.9,2-3.9,3-5.9h-21.1c-.4,1.3-.9,2.6-1.5,3.8-10.8,18.8-21.7,37.5-32.6,56.3-1,1.7-1.8,3.1-.5,5.3,11.4,19.5,22.7,39.1,34,58.6.5.9,1.7,2,2.5,2,6.2.2,12.3,0,19.1,0-1-1.9-1.7-3.1-2.3-4.3Z"/>
      <g>
        <path class="cls-1" d="M130.1,24v-12h84v12h-35.2v100h-13.6V24h-35.2Z"/>
        <path class="cls-1" d="M244.8,125.7c-8.1,0-15.1-1.8-20.9-5.4-5.9-3.6-10.4-8.6-13.5-15.1-3.2-6.5-4.7-14-4.7-22.6s1.6-16.2,4.7-22.8c3.2-6.6,7.6-11.7,13.2-15.4,5.7-3.7,12.3-5.6,19.9-5.6s8.7.7,13,2.2c4.3,1.5,8.1,3.8,11.6,7.1,3.5,3.3,6.3,7.6,8.4,12.9s3.1,12,3.1,19.8v5.5h-64.8v-11.2h51.6c0-4.7-.9-9-2.8-12.7-1.9-3.7-4.5-6.7-8-8.8-3.4-2.2-7.5-3.2-12.2-3.2s-9.6,1.3-13.3,3.8c-3.7,2.5-6.6,5.8-8.6,9.9-2,4-3,8.4-3,13v7.4c0,6.3,1.1,11.7,3.3,16.1,2.2,4.4,5.3,7.7,9.2,10,3.9,2.3,8.5,3.4,13.7,3.4s6.5-.5,9.2-1.4c2.8-1,5.1-2.4,7.1-4.4,2-2,3.6-4.4,4.6-7.3l12.5,3.5c-1.3,4.2-3.5,7.9-6.6,11.1-3.1,3.2-6.9,5.7-11.5,7.4-4.6,1.8-9.7,2.7-15.4,2.7Z"/>
        <path class="cls-1" d="M287.7,124V40h12.5v12.7h.9c1.5-4.2,4.3-7.5,8.3-10.1,4-2.6,8.5-3.9,13.6-3.9s2.1,0,3.6,0c1.4,0,2.5,0,3.2.2v13.1c-.4-.1-1.4-.3-3-.5-1.5-.2-3.2-.4-4.9-.4-4.1,0-7.7.8-10.9,2.5-3.2,1.7-5.7,4-7.5,7-1.8,3-2.8,6.4-2.8,10.1v53.2h-12.9Z"/>
        <path class="cls-1" d="M333.5,124V40h12.5v12.7h.9c1.5-4.2,4.3-7.5,8.3-10.1,4-2.6,8.5-3.9,13.6-3.9s2.1,0,3.6,0c1.4,0,2.5,0,3.2.2v13.1c-.4-.1-1.4-.3-3-.5-1.5-.2-3.2-.4-4.9-.4-4.1,0-7.7.8-10.9,2.5-3.2,1.7-5.7,4-7.5,7-1.8,3-2.8,6.4-2.8,10.1v53.2h-12.9Z"/>
        <path class="cls-1" d="M404,125.9c-5.3,0-10.2-1-14.5-3-4.3-2-7.8-5-10.3-8.8-2.6-3.8-3.8-8.5-3.8-14s.9-8.7,2.8-11.7c1.9-3,4.4-5.4,7.6-7.1,3.2-1.7,6.7-3,10.5-3.9,3.8-.9,7.7-1.5,11.6-2.1,5.1-.7,9.3-1.2,12.4-1.5,3.2-.3,5.5-.9,7-1.8,1.5-.8,2.2-2.3,2.2-4.4v-.4c0-5.4-1.5-9.6-4.4-12.6-2.9-3-7.4-4.5-13.3-4.5s-11,1.3-14.5,4c-3.5,2.7-6,5.6-7.4,8.6l-12.2-4.4c2.2-5.1,5.1-9.1,8.8-11.9,3.7-2.9,7.7-4.9,12-6,4.4-1.1,8.6-1.7,12.9-1.7s5.8.3,9.3,1c3.5.6,6.9,1.9,10.2,3.9,3.3,2,6,4.9,8.2,8.9,2.2,4,3.3,9.3,3.3,16v55.3h-12.9v-11.4h-.7c-.9,1.8-2.3,3.8-4.4,5.9-2,2.1-4.8,3.8-8.1,5.3s-7.5,2.2-12.4,2.2ZM405.9,114.3c5.1,0,9.4-1,12.9-3,3.5-2,6.2-4.6,8-7.8s2.7-6.5,2.7-10v-11.8c-.5.7-1.7,1.2-3.6,1.8-1.8.5-4,1-6.3,1.4-2.4.4-4.7.7-6.9,1s-4.1.5-5.4.7c-3.4.4-6.5,1.1-9.4,2.1-2.9,1-5.2,2.4-7,4.3-1.8,1.9-2.7,4.5-2.7,7.8s1.7,7.9,5,10.1c3.3,2.3,7.6,3.4,12.7,3.4Z"/>
        <path class="cls-1" d="M443.2,24v-12h84v12h-35.2v100h-13.6V24h-35.2Z"/>
        <path class="cls-1" d="M544.3,124l-25.6-84h13.6l18.2,64.3h.9l17.9-64.3h13.8l17.7,64.1h.9l18.2-64.1h13.6l-25.6,84h-12.7l-18.4-64.5h-1.3l-18.4,64.5h-12.7Z"/>
        <path class="cls-1" d="M645.4,26c-2.5,0-4.7-.9-6.5-2.6-1.8-1.7-2.7-3.8-2.7-6.2s.9-4.5,2.7-6.2c1.8-1.7,4-2.6,6.5-2.6s4.7.9,6.5,2.6c1.8,1.7,2.7,3.8,2.7,6.2s-.9,4.5-2.7,6.2c-1.8,1.7-4,2.6-6.5,2.6ZM638.8,124V40h12.9v84h-12.9Z"/>
        <path class="cls-1" d="M676.7,73.4v50.5h-12.9V40h12.5v13.1h1.1c2-4.3,5-7.7,9-10.3,4-2.6,9.2-3.9,15.5-3.9s10.7,1.2,14.9,3.5c4.3,2.3,7.6,5.8,10,10.5,2.4,4.7,3.6,10.6,3.6,17.7v53.4h-12.9v-52.5c0-6.6-1.7-11.7-5.1-15.4-3.4-3.7-8.1-5.6-14.1-5.6s-7.8.9-11,2.7c-3.2,1.8-5.8,4.4-7.6,7.8-1.9,3.4-2.8,7.6-2.8,12.5Z"/>
      </g>
    </g>
  </g>
</svg>